<svg id="Capa_1" enable-background="new 0 0 480 480" height="512" viewBox="0 0 480 480" width="512"
  xmlns="http://www.w3.org/2000/svg">
  <g>
    <path
      fill="#fff"
      d="m192.013 224c-8.491.022-16.639-3.352-22.628-9.372l-105.385-105.373v50.745c0 17.673-14.327 32-32 32s-32-14.327-32-32v-128c.02-17.665 14.335-31.98 32-32h128.011c17.673 0 32 14.327 32 32s-14.327 32-32 32h-50.749l105.381 105.373c12.497 12.497 12.496 32.758-.001 45.255-6.001 6.001-14.142 9.373-22.629 9.372zm-136.013-142.059c2.123 0 4.158.843 5.659 2.344l119.041 119.029c6.249 6.249 16.379 6.249 22.628 0s6.249-16.379 0-22.628l-119.038-119.029c-3.124-3.124-3.124-8.189 0-11.314 1.5-1.5 3.536-2.343 5.658-2.343h70.063c8.837 0 16-7.163 16-16s-7.163-16-16-16h-128.011c-8.832.01-15.99 7.168-16 16v128c0 8.837 7.163 16 16 16s16-7.163 16-16v-70.059c0-4.418 3.582-8 8-8z" />
    <path
      fill="#fff"
      d="m448 480h-128.011c-17.673 0-32-14.327-32-32s14.327-32 32-32h50.749l-105.381-105.384c-12.498-12.498-12.498-32.761 0-45.258 12.498-12.498 32.761-12.498 45.258-.001l105.385 105.38v-50.748c0-17.673 14.327-32 32-32s32 14.327 32 32v128.011c-.021 17.664-14.336 31.979-32 32zm-128.011-48c-8.837 0-16 7.163-16 16s7.163 16 16 16h128.011c8.832-.01 15.99-7.168 16-16v-128.011c0-8.837-7.163-16-16-16s-16 7.163-16 16v70.063c.001 4.418-3.58 8.001-7.999 8.001-2.123 0-4.159-.843-5.659-2.344l-119.042-119.037c-6.249-6.248-16.379-6.248-22.627.001s-6.248 16.379 0 22.627l119.037 119.039c3.126 3.122 3.13 8.187.008 11.314-1.502 1.504-3.541 2.349-5.666 2.347z" />
  </g>
</svg>