<?xml version="1.0" encoding="iso-8859-1"?>
<!-- Generator: Adobe Illustrator 19.0.0, SVG Export Plug-In . SVG Version: 6.00 Build 0)  -->
<svg version="1.1" id="Capa_1" xmlns="http://www.w3.org/2000/svg" xmlns:xlink="http://www.w3.org/1999/xlink" x="0px" y="0px"
	 viewBox="0 0 480 480" style="enable-background:new 0 0 480 480;" xml:space="preserve">
<g>
	<g>
		<g>
			<path d="M439.016,397.752v-0.048c0.12-0.544,0.168-1.144,0.264-1.704H472c4.418,0,8-3.582,8-8v-64c0-4.418-3.582-8-8-8h-8v-72
				c-0.003-1.58-0.47-3.124-1.344-4.44l-64-96c-1.484-2.225-3.982-3.56-6.656-3.56h-72V76h8c4.418,0,8-3.582,8-8V36
				c0-4.418-3.582-8-8-8H8c-4.418,0-8,3.582-8,8v32c0,4.418,3.582,8,8,8h8v240H8c-4.418,0-8,3.582-8,8v64c0,4.418,3.582,8,8,8
				h64.712c0.088,0.52,0.136,1.08,0.248,1.6c4.45,21.929,23.195,37.308,44.556,38.4H8c-4.418,0-8,3.582-8,8s3.582,8,8,8h464
				c4.418,0,8-3.582,8-8s-3.582-8-8-8h-77.316c2.274-0.13,4.566-0.415,6.864-0.882C420.395,431.294,435.14,416.589,439.016,397.752z
				 M423.352,394.4c-3.53,17.317-20.43,28.493-37.747,24.963c-12.62-2.573-22.468-12.461-24.989-25.091
				c-0.426-2.063-0.632-4.165-0.616-6.272c0-17.673,14.327-32,32-32c17.673,0,32,14.327,32,32
				C424.015,390.15,423.798,392.296,423.352,394.4z M387.72,156L448,246.4V260H344c-4.418,0-8,3.582-8,8s3.582,8,8,8h104v40H320V156
				H387.72z M16,44h304v16H16V44z M304,76v240H32V76H304z M83.12,357.336l-0.088,0.104c-1.612,1.968-3.068,4.06-4.352,6.256
				c-0.16,0.28-0.344,0.544-0.504,0.8c-1.2,2.137-2.23,4.365-3.08,6.664c-0.152,0.392-0.296,0.8-0.432,1.176
				c-0.815,2.333-1.443,4.727-1.88,7.16c0,0.176-0.104,0.328-0.136,0.504H16v-48h448v48h-24.664c0-0.176-0.104-0.328-0.136-0.504
				c-0.437-2.432-1.065-4.827-1.88-7.16c-0.136-0.4-0.28-0.8-0.432-1.176c-0.85-2.299-1.88-4.527-3.08-6.664
				c-0.16-0.288-0.344-0.552-0.504-0.8c-1.284-2.196-2.74-4.288-4.352-6.256l-0.088-0.104c-1.633-1.945-3.421-3.757-5.344-5.416
				c-0.2-0.176-0.384-0.368-0.592-0.544c-1.876-1.57-3.868-2.996-5.96-4.264l-1.04-0.632c-2.098-1.207-4.282-2.255-6.536-3.136
				l-1.184-0.44c-2.345-0.849-4.752-1.515-7.2-1.992c-0.32-0.064-0.64-0.096-0.96-0.152c-5.327-0.971-10.785-0.971-16.112,0
				c-0.32,0.056-0.64,0.088-0.96,0.152c-2.448,0.477-4.855,1.143-7.2,1.992l-1.184,0.44c-2.254,0.881-4.438,1.929-6.536,3.136
				l-1.04,0.632c-2.092,1.268-4.084,2.694-5.96,4.264c-0.208,0.176-0.392,0.368-0.592,0.544c-1.923,1.659-3.711,3.471-5.344,5.416
				l-0.088,0.104c-1.612,1.968-3.068,4.06-4.352,6.256c-0.16,0.28-0.344,0.544-0.504,0.8c-1.2,2.137-2.23,4.365-3.08,6.664
				c-0.152,0.392-0.296,0.8-0.432,1.176c-0.815,2.333-1.443,4.727-1.88,7.16c0,0.176-0.104,0.328-0.136,0.504H167.336
				c0-0.176-0.104-0.328-0.136-0.504c-0.437-2.432-1.065-4.827-1.88-7.16c-0.136-0.4-0.28-0.8-0.432-1.176
				c-0.85-2.299-1.88-4.527-3.08-6.664c-0.16-0.288-0.344-0.552-0.504-0.8c-1.284-2.196-2.74-4.288-4.352-6.256l-0.088-0.104
				c-1.633-1.945-3.421-3.757-5.344-5.416c-0.2-0.176-0.384-0.368-0.592-0.544c-1.876-1.57-3.868-2.996-5.96-4.264l-1.04-0.632
				c-2.098-1.207-4.282-2.255-6.536-3.136l-1.184-0.44c-2.345-0.849-4.752-1.515-7.2-1.992c-0.32-0.064-0.64-0.096-0.96-0.152
				c-5.327-0.971-10.785-0.971-16.112,0c-0.32,0.056-0.64,0.088-0.96,0.152c-2.448,0.477-4.855,1.143-7.2,1.992l-1.184,0.44
				c-2.254,0.881-4.438,1.929-6.536,3.136l-1.04,0.632c-2.092,1.268-4.084,2.694-5.96,4.264c-0.208,0.176-0.392,0.368-0.592,0.544
				C86.541,353.579,84.753,355.391,83.12,357.336z M88.616,394.272C88.19,392.209,87.984,390.107,88,388
				c0.009-17.673,14.343-31.993,32.016-31.984C137.677,356.024,151.991,370.339,152,388c0.015,2.15-0.202,4.296-0.648,6.4
				c-3.53,17.317-20.43,28.493-37.747,24.963C100.985,416.79,91.137,406.902,88.616,394.272z M122.359,436
				c2.381-0.12,4.782-0.417,7.189-0.906c18.847-3.825,33.592-18.53,37.468-37.367c0.12-0.544,0.168-1.144,0.264-1.704h177.432
				c0.088,0.52,0.136,1.08,0.248,1.6c4.427,21.816,23.003,37.143,44.226,38.376H122.359z"/>
			<path d="M144,388c0-13.255-10.745-24-24-24s-24,10.745-24,24s10.745,24,24,24S144,401.255,144,388z M120,396
				c-4.418,0-8-3.582-8-8s3.582-8,8-8s8,3.582,8,8S124.418,396,120,396z"/>
			<path d="M392,364c-13.255,0-24,10.745-24,24s10.745,24,24,24s24-10.745,24-24S405.255,364,392,364z M392,396
				c-4.418,0-8-3.582-8-8s3.582-8,8-8s8,3.582,8,8S396.418,396,392,396z"/>
			<path d="M344,244h72c4.418,0,8-3.581,8.001-7.999c0-1.667-0.52-3.292-1.489-4.649l-40-56C381.01,173.248,378.585,172,376,172h-32
				c-4.418,0-8,3.582-8,8v56C336,240.418,339.582,244,344,244z M352,188h19.88l28.576,40H352V188z"/>
			<path d="M168,300c57.438,0,104-46.562,104-104c-0.066-57.41-46.59-103.934-104-104c-57.438,0-104,46.562-104,104
				S110.562,300,168,300z M168,108c48.601,0,88,39.399,88,88c-0.057,48.577-39.423,87.943-88,88c-48.601,0-88-39.399-88-88
				C80,147.399,119.399,108,168,108z"/>
			<path d="M112.4,207.72l33.944,33.936c3.124,3.123,8.188,3.123,11.312,0l67.88-67.88c3.069-3.178,2.981-8.243-0.197-11.312
				c-3.1-2.994-8.015-2.994-11.115,0L152,224.688l-28.288-28.28c-3.069-3.178-8.134-3.266-11.312-0.197
				c-3.178,3.069-3.266,8.134-0.197,11.312C112.268,207.59,112.333,207.656,112.4,207.72z"/>
		</g>
	</g>
</g>
<g>
</g>
<g>
</g>
<g>
</g>
<g>
</g>
<g>
</g>
<g>
</g>
<g>
</g>
<g>
</g>
<g>
</g>
<g>
</g>
<g>
</g>
<g>
</g>
<g>
</g>
<g>
</g>
<g>
</g>
</svg>
