<?xml version="1.0" encoding="iso-8859-1"?>
<!-- Generator: Adobe Illustrator 19.0.0, SVG Export Plug-In . SVG Version: 6.00 Build 0)  -->
<svg version="1.1" id="Capa_1" xmlns="http://www.w3.org/2000/svg" xmlns:xlink="http://www.w3.org/1999/xlink" x="0px" y="0px"
	 viewBox="0 0 480 480" style="enable-background:new 0 0 480 480;" xml:space="preserve">
<g>
	<g>
		<path d="M440,16h-32V8c0-4.418-3.582-8-8-8s-8,3.582-8,8v8h-64V8c0-4.418-3.582-8-8-8s-8,3.582-8,8v8h-64V8c0-4.418-3.582-8-8-8
			s-8,3.582-8,8v8h-64V8c0-4.418-3.582-8-8-8s-8,3.582-8,8v8H88V8c0-4.418-3.582-8-8-8s-8,3.582-8,8v8H40
			C17.92,16.026,0.026,33.92,0,56v384c0.026,22.08,17.92,39.974,40,40h400c22.08-0.026,39.974-17.92,40-40V56
			C479.974,33.92,462.08,16.026,440,16z M464,440c0,13.255-10.745,24-24,24H40c-13.255,0-24-10.745-24-24V112h448V440z M464,96H16
			V56c0-13.255,10.745-24,24-24h32v18.224c-7.653,4.418-10.275,14.204-5.856,21.856C70.562,79.733,80.347,82.355,88,77.937
			c7.653-4.418,10.275-14.204,5.856-21.856c-1.404-2.432-3.424-4.452-5.856-5.856V32h64v18.224
			c-7.653,4.418-10.275,14.204-5.856,21.856c4.418,7.653,14.204,10.275,21.856,5.856c7.653-4.418,10.275-14.204,5.856-21.856
			c-1.404-2.432-3.424-4.452-5.856-5.856V32h64v18.224c-7.653,4.418-10.275,14.204-5.856,21.856
			c4.418,7.653,14.204,10.275,21.856,5.856c7.653-4.418,10.275-14.204,5.856-21.856c-1.404-2.432-3.424-4.452-5.856-5.856V32h64
			v18.224c-7.653,4.418-10.275,14.204-5.856,21.856c4.418,7.653,14.204,10.275,21.856,5.856c7.653-4.418,10.275-14.204,5.856-21.856
			c-1.404-2.432-3.424-4.452-5.856-5.856V32h64v18.224c-7.653,4.418-10.275,14.204-5.856,21.856
			c4.418,7.653,14.204,10.275,21.856,5.856c7.653-4.418,10.275-14.204,5.856-21.856c-1.404-2.432-3.424-4.452-5.856-5.856V32h32
			c13.255,0,24,10.745,24,24V96z"/>
	</g>
</g>
<g>
	<g>
		<path d="M432,168H48c-4.418,0-8,3.582-8,8v256c0,4.418,3.582,8,8,8h384c4.418,0,8-3.582,8-8V176C440,171.582,436.418,168,432,168z
			 M136,424H56v-48h80V424z M136,360H56v-48h80V360z M136,296H56v-48h80V296z M136,232H56v-48h80V232z M232,424h-80v-48h80V424z
			 M232,360h-80v-48h80V360z M232,296h-80v-48h80V296z M232,232h-80v-48h80V232z M328,424h-80v-48h80V424z M328,360h-80v-48h80V360z
			 M328,296h-80v-48h80V296z M328,232h-80v-48h80V232z M424,424h-80v-48h80V424z M424,360h-80v-48h80V360z M424,296h-80v-48h80V296z
			 M424,232h-80v-48h80V232z"/>
	</g>
</g>
<g>
</g>
<g>
</g>
<g>
</g>
<g>
</g>
<g>
</g>
<g>
</g>
<g>
</g>
<g>
</g>
<g>
</g>
<g>
</g>
<g>
</g>
<g>
</g>
<g>
</g>
<g>
</g>
<g>
</g>
</svg>
