<?xml version="1.0"?>
<svg xmlns="http://www.w3.org/2000/svg" viewBox="0 0 64 64" width="512" height="512"><g id="Talk_on_phone" data-name="Talk on phone"><path d="M51.071,38.384a3.005,3.005,0,0,0-4.243,0l-5.656,5.657a5.006,5.006,0,0,1-7.071,0L19.958,29.9a5.006,5.006,0,0,1,0-7.071l5.657-5.656a3,3,0,0,0,0-4.243L17.13,4.444a3.072,3.072,0,0,0-4.242,0L7.23,10.1a17.021,17.021,0,0,0,0,24.041L29.858,56.77a17,17,0,0,0,24.041,0l5.659-5.658a3,3,0,0,0,0-4.242ZM14.3,5.857a1.023,1.023,0,0,1,1.413,0L24.2,14.344a1,1,0,0,1,0,1.413l-3.536,3.536-9.9-9.9Zm38.182,49.5a15,15,0,0,1-21.213,0L8.645,32.728a15.018,15.018,0,0,1,0-21.213l.707-.707,9.9,9.9-.707.707a7.006,7.006,0,0,0,0,9.9L32.687,45.456a7.008,7.008,0,0,0,9.9,0l.707-.707,9.9,9.9ZM58.143,49.7l-3.537,3.535-9.9-9.9L48.242,39.8a1,1,0,0,1,1.415,0l8.485,8.485A1,1,0,0,1,58.143,49.7Z"/><path d="M57,2H35a5.006,5.006,0,0,0-5,5V23a5.006,5.006,0,0,0,5,5h1v8a1,1,0,0,0,1.747.665L45.449,28H57a5.006,5.006,0,0,0,5-5V7A5.006,5.006,0,0,0,57,2Zm3,21a3,3,0,0,1-3,3H45a1,1,0,0,0-.747.335L38,33.37V27a1,1,0,0,0-1-1H35a3,3,0,0,1-3-3V7a3,3,0,0,1,3-3H57a3,3,0,0,1,3,3Z"/><path d="M38,12a3,3,0,1,0,3,3A3,3,0,0,0,38,12Zm0,4a1,1,0,1,1,1-1A1,1,0,0,1,38,16Z"/><path d="M46,12a3,3,0,1,0,3,3A3,3,0,0,0,46,12Zm0,4a1,1,0,1,1,1-1A1,1,0,0,1,46,16Z"/><path d="M54,12a3,3,0,1,0,3,3A3,3,0,0,0,54,12Zm0,4a1,1,0,1,1,1-1A1,1,0,0,1,54,16Z"/></g></svg>
