<?xml version="1.0"?>
<svg xmlns="http://www.w3.org/2000/svg" viewBox="0 0 64 64" width="512" height="512"><g id="File-2" data-name="File"><path d="M45,21H19a1,1,0,0,0,0,2H45a1,1,0,0,0,0-2Z"/><path d="M39,19a1,1,0,0,0,0-2H25a1,1,0,0,0,0,2Z"/><path d="M46,26a1,1,0,0,0-1-1H19a1,1,0,0,0,0,2H45A1,1,0,0,0,46,26Z"/><path d="M39,29H19a1,1,0,0,0,0,2H39a1,1,0,0,0,0-2Z"/><path d="M39,33H19a1,1,0,0,0,0,2H39a1,1,0,0,0,0-2Z"/><path d="M40,38a1,1,0,0,0-1-1H19a1,1,0,0,0,0,2H39A1,1,0,0,0,40,38Z"/><path d="M55,40a1,1,0,0,0-1,1V59a1,1,0,0,1-1,1H11a1,1,0,0,1-1-1V9a1,1,0,0,1,1-1H23v2H13a1,1,0,0,0-1,1V57a1,1,0,0,0,1,1H51a1,1,0,0,0,1-1V47a1,1,0,0,0-2,0v9H14V12h9a1,1,0,0,0,1,1H40a1,1,0,0,0,1-1h9v9a1,1,0,0,0,2,0V11a1,1,0,0,0-1-1H41V8H53a1,1,0,0,1,1,1v9a1,1,0,0,0,2,0V9a3,3,0,0,0-3-3H41a1,1,0,0,0-1-1H35.874a4,4,0,0,0-7.748,0H24a1,1,0,0,0-1,1H11A3,3,0,0,0,8,9V59a3,3,0,0,0,3,3H53a3,3,0,0,0,3-3V41A1,1,0,0,0,55,40ZM29,7a1,1,0,0,0,1-1,2,2,0,0,1,4,0,1,1,0,0,0,1,1h4v4H25V7Z"/><path d="M31,52H19a1,1,0,0,0,0,2H31a1,1,0,0,0,0-2Z"/><path d="M31,49h-.586l-1.707-1.707a1,1,0,0,0-1.6.26L26.382,49h-1A2.978,2.978,0,0,0,26,47.171v-.255a2.916,2.916,0,0,0-5.416-1.5l-2.441,4.069a1,1,0,1,0,1.714,1.03L22.3,46.444a.916.916,0,0,1,1.7.472v.255a1,1,0,0,1-.293.708l-1.414,1.414A1,1,0,0,0,23,51h4a1,1,0,0,0,.895-.553l.379-.759,1.019,1.019A1,1,0,0,0,30,51h1a1,1,0,0,0,0-2Z"/><path d="M60.366,21.457l-1.732-1a3,3,0,0,0-4.1,1.1l-1.5,2.6-1.732-1a1,1,0,0,0-1.367.366l-3,5.2a1,1,0,0,0,1.733,1l2.5-4.33.866.5-9.5,16.455-2,3.464a.989.989,0,0,0-.132.44l-.4,6.7a1,1,0,0,0,1.549.894l5.6-3.7a.987.987,0,0,0,.315-.334l2-3.464,12-20.785A3,3,0,0,0,60.366,21.457ZM42.3,47.979,44.7,49.361l-2.579,1.7Zm3.929-.041-3.464-2,1-1.732,3.464,2Zm2-3.464-3.464-2,9-15.589,3.464,2Zm11.5-19.919-1.5,2.6-3.464-2,1.5-2.6a1,1,0,0,1,1.366-.366l1.732,1A1,1,0,0,1,59.732,24.555Z"/></g></svg>
