<svg height="512" viewBox="0 0 60 60" width="512" xmlns="http://www.w3.org/2000/svg"><g id="Page-1" fill="none" fill-rule="evenodd"><g id="048---Rating" fill="rgb(0,0,0)" fill-rule="nonzero"><path id="Shape" d="m14 0c-7.7319865 0-14 6.2680135-14 14s6.2680135 14 14 14 14-6.2680135 14-14c-.0087073-7.72837695-6.2716231-13.99129271-14-14zm0 26c-6.627417 0-12-5.372583-12-12s5.372583-12 12-12 12 5.372583 12 12c-.0072198 6.6244241-5.3755759 11.9927802-12 12z"/><path id="Shape" d="m11 12c0-1.6568542-1.34314575-3-3-3s-3 1.3431458-3 3 1.34314575 3 3 3c1.65610033-.0018187 2.9981813-1.3438997 3-3zm-3 1c-.55228475 0-1-.4477153-1-1s.44771525-1 1-1 1 .4477153 1 1c-.00033099.5521476-.44785241.999669-1 1z"/><path id="Shape" d="m20 9c-1.6568542 0-3 1.3431458-3 3s1.3431458 3 3 3 3-1.3431458 3-3c-.0018187-1.6561003-1.3438997-2.99818129-3-3zm0 4c-.5522847 0-1-.4477153-1-1s.4477153-1 1-1 1 .4477153 1 1c-.000331.5521476-.4478524.999669-1 1z"/><path id="Shape" d="m19.3164 17.0518c-.2514664-.0843862-.5261826-.0651849-.763465.0533625-.2372823.1185474-.4176048.3266854-.501135.5784375-.4603087 1.3839499-1.7554074 2.3173849-3.2139 2.3164h-1.6758c-1.4584926.0009849-2.7535913-.9324501-3.2139-2.3164-.1053689-.3484621-.3917813-.6121337-.74775155-.6883809-.35597025-.0762473-.72525403.0469771-.96410812.3217083-.23885409.2747311-.30953885.6575606-.18454033.9994726.73133304 2.2010502 2.7909325 3.6856481 5.1103 3.6836h1.6758c2.3192571.0019187 4.3787017-1.4826547 5.11-3.6836.1745286-.5235726-.1081018-1.0895493-.6315-1.2646z"/><path id="Shape" d="m14 32c-7.7319865 0-14 6.2680135-14 14s6.2680135 14 14 14 14-6.2680135 14-14c-.0087073-7.7283769-6.2716231-13.9912927-14-14zm0 26c-6.627417 0-12-5.372583-12-12s5.372583-12 12-12 12 5.372583 12 12c-.0072198 6.6244241-5.3755759 11.9927802-12 12z"/><path id="Shape" d="m11 44c0-1.6568542-1.34314575-3-3-3s-3 1.3431458-3 3 1.34314575 3 3 3c1.65610033-.0018187 2.9981813-1.3438997 3-3zm-3 1c-.55228475 0-1-.4477153-1-1s.44771525-1 1-1 1 .4477153 1 1c-.00033099.5521476-.44785241.999669-1 1z"/><path id="Shape" d="m20 41c-1.6568542 0-3 1.3431458-3 3s1.3431458 3 3 3 3-1.3431458 3-3c-.0018187-1.6561003-1.3438997-2.9981813-3-3zm0 4c-.5522847 0-1-.4477153-1-1s.4477153-1 1-1 1 .4477153 1 1c-.000331.5521476-.4478524.999669-1 1z"/><path id="Shape" d="m15 48h-2c-2.2082479.0021499-3.9978501 1.7917521-4 4 0 .5522847.44771525 1 1 1 .5522847 0 1-.4477153 1-1 .0014873-1.1039528.8960472-1.9985127 2-2h2c1.1039528.0014873 1.9985127.8960472 2 2 0 .5522847.4477153 1 1 1s1-.4477153 1-1c-.0021499-2.2082479-1.7917521-3.9978501-4-4z"/><path id="Shape" d="m57 0h-22c-1.6561003.00181871-2.9981813 1.34389967-3 3v22c.0018187 1.6561003 1.3438997 2.9981813 3 3h22c1.6561003-.0018187 2.9981813-1.3438997 3-3v-22c-.0018187-1.65610033-1.3438997-2.99818129-3-3zm1 25c-.000331.5521476-.4478524.999669-1 1h-22c-.5521476-.000331-.999669-.4478524-1-1v-22c.000331-.55214759.4478524-.99966901 1-1h22c.5521476.00033099.999669.44785241 1 1z"/><path id="Shape" d="m57 32h-22c-1.6561003.0018187-2.9981813 1.3438997-3 3v22c.0018187 1.6561003 1.3438997 2.9981813 3 3h22c1.6561003-.0018187 2.9981813-1.3438997 3-3v-22c-.0018187-1.6561003-1.3438997-2.9981813-3-3zm1 25c-.000331.5521476-.4478524.999669-1 1h-22c-.5521476-.000331-.999669-.4478524-1-1v-22c.000331-.5521476.4478524-.999669 1-1h22c.5521476.000331.999669.4478524 1 1z"/><path id="Shape" d="m54.7432 4.5586c-1.3483664-.9626632-3.221814-.6500787-4.1846.6982l-8.2148 11.501-1.543-1.1572c-.9705429-.7284733-2.2843663-.8004974-3.3287241-.1824813-1.0443577.618016-1.6135347 1.8043367-1.4420759 3.0056813.1099908.7885409.5314021 1.5001136 1.17 1.9756l3.999 3c.6462479.4849766 1.4608002.6887722 2.2592882.5652589.798488-.1235132 1.513397-.5638918 1.9829118-1.2214589l10-14c.960787-1.34875753.6485415-3.22070967-.698-4.1846zm-.9287 3.0225-10 13.999c-.1563216.2196904-.3947347.3669457-.6611642.4083664-.2664294.0414207-.5382956-.0265034-.7539358-.1883664l-4-3.001c-.2129155-.1578634-.3534476-.3946781-.39-.6572-.0566908-.4005293.133214-.7958216.4813194-1.0018803.3481055-.2060586.7860094-.1823934 1.1098806.0599803l2.3623 1.7715c.2152164.1617487.4866301.2297358.7526823.1885411.2660521-.0411947.5041957-.18808.6604177-.4073411l8.8105-12.334c.1529849-.21666926.3866922-.36269572.6485-.4052.3992001-.0673379.7996158.11265854 1.0142394.45592495s.2011061.7820701-.0342394 1.11147505z"/></g></g></svg>