<svg id="Capa_1" enable-background="new 0 0 64 64" height="512" viewBox="0 0 64 64" width="512" xmlns="http://www.w3.org/2000/svg" xmlns:x="http://ns.adobe.com/Extensibility/1.0/" xmlns:i="http://ns.adobe.com/AdobeIllustrator/10.0/" xmlns:graph="http://ns.adobe.com/Graphs/1.0/"><g><path d="m61.383 2.076c-.374-.155-.804-.069-1.09.217l-12.293 12.293v-7.586c0-2.761-2.239-5-5-5s-5 2.239-5 5v17.586l-4 4v-23.586c0-1.657-1.343-3-3-3h-26c-1.657 0-3 1.343-3 3v42c0 1.657 1.343 3 3 3h7.586l-10.293 10.293c-.39.391-.39 1.024 0 1.414.188.188.442.293.707.293h58c.552 0 1-.448 1-1v-58c0-.404-.243-.769-.617-.924zm-34.659 47.924h4.276c1.657 0 3-1.343 3-3v-5.276l4-4v3.276c-.002.155.033.308.1.447l4 8c.246.494.847.695 1.341.449.194-.097.352-.254.449-.449l4-8c.071-.138.109-.291.11-.447v-12.276l4-4v27.276h-27.276zm19.276-11-2-1.5v-23.5h2zm-1.253 4.27c-1.139-.343-2.355-.343-3.494 0l-.986-1.97 2.733-2.05 2.733 2.05zm-.914 1.83-.833 1.664-.833-1.664c.549-.114 1.117-.114 1.666 0zm-3.833-31.1h2v23.5l-2 1.5zm6-2h-6v-2h6zm-6-5c0-1.657 1.343-3 3-3s3 1.343 3 3v1h-6zm-2 20.414v7.486l-4 4v-7.486zm-34 19.586v-42c0-.552.448-1 1-1h26c.552 0 1 .448 1 1v42c0 .552-.448 1-1 1h-26c-.552 0-1-.448-1-1zm50 13v-3h-2v3h-4v-3h-2v3h-4v-3h-2v3h-4v-3h-2v3h-4v-3h-2v3h-4v-3h-2v3h-4v-3h-2v3h-10.586l10-10h8.486l-2.3 2.293c-.39.391-.39 1.024 0 1.414.188.188.444.294.71.293h30.69c.552 0 1-.448 1-1v-30.69c0-.552-.448-1-1-1-.265 0-.519.105-.707.293l-4.293 4.297v-8.486l12-12v10.586h-3v2h3v4h-3v2h3v4h-3v2h3v4h-3v2h3v4h-3v2h3v4h-3v2h3v4h-3v2h3v6z"/><path d="m31 46v-40c0-.552-.448-1-1-1h-24c-.552 0-1 .448-1 1v40c0 .552.448 1 1 1h24c.552 0 1-.448 1-1zm-24-10v-8h10v8zm22-18v8h-10v-8zm-12 8h-10v-8h10zm2 2h10v8h-10zm-12-21h22v9h-22zm22 38h-22v-7h22z"/><path d="m11 25h2v-2h2v-2h-2v-2h-2v2h-2v2h2z"/><path d="m13.414 29.172-1.414 1.414-1.414-1.414-1.414 1.414 1.414 1.414-1.414 1.414 1.414 1.414 1.414-1.414 1.414 1.414 1.414-1.414-1.414-1.414 1.414-1.414z"/><path d="m21 21h6v2h-6z"/><path d="m21 31v2h6v-2h-3z"/><path d="m15 39h6v2h-6z"/><path d="m15 42h6v2h-6z"/><circle cx="24" cy="29.997" r="1.003"/><circle cx="24" cy="33.999" r="1.003"/></g></svg>